<?xml version="1.0" encoding="UTF-8"?>
<svg width="640px" height="640px" viewBox="0 0 640 640" version="1.1" xmlns="http://www.w3.org/2000/svg" xmlns:xlink="http://www.w3.org/1999/xlink">
    <title>logo_avatar_reverse_bw</title>
    <g id="logo" stroke="none" stroke-width="1" fill="none" fill-rule="evenodd">
        <g id="OSS-Compass-LOGO" transform="translate(-1560.000000, -3021.000000)">
            <g id="logo_avatar_reverse_bw" transform="translate(1560.000000, 3021.000000)">
                <rect id="Rectangle" fill="#000000" x="0" y="0" width="640" height="640"></rect>
                <path d="M259.09403,406.37443 C276.302628,418.566649 297.315784,425.730944 320,425.730944 C342.613995,425.730944 363.56726,418.610936 380.746048,406.487512 L407.382121,433.159766 C384.071766,451.238184 355.022773,462.2533 323.435935,463.000013 L316.564065,463.000013 C284.907536,462.251653 255.800063,451.189528 232.463672,433.040002 L259.09403,406.37443 Z M433.653,231.579 L522.026359,319.952884 L433.586,408.393 L407.256,382.029 L469.298821,319.98824 L407.289,257.979 L433.653,231.579 Z M206.21,231.716 L232.573,258.116 L170.701179,319.98824 L232.606,381.892 L206.277,408.257 L117.973641,319.952884 L206.21,231.716 Z M320,240.426391 C363.899383,240.426391 399.486865,276.061794 399.486865,320.020293 C399.486865,363.978791 363.899383,399.614195 320,399.614195 C276.100617,399.614195 240.513135,363.978791 240.513135,320.020293 C240.513135,276.061794 276.100617,240.426391 320,240.426391 Z M319.242176,245.355517 L290.418239,317.512395 C289.823888,319.000274 289.788926,320.649544 290.313353,322.15641 L290.418239,322.437204 L319.242176,394.594083 L348.066113,322.437204 C348.660464,320.949326 348.695426,319.300056 348.170998,317.79319 L348.066113,317.512395 L319.242176,245.355517 Z M319.242176,313.341975 C322.944437,313.341975 325.945712,316.311592 325.945712,319.9748 C325.945712,323.638008 322.944437,326.607625 319.242176,326.607625 C315.539915,326.607625 312.538639,323.638008 312.538639,319.9748 C312.538639,316.311592 315.539915,313.341975 319.242176,313.341975 Z M320,177 C352.914743,177 383.229047,188.148795 407.38222,206.880897 L380.745988,233.553032 C363.567211,221.429633 342.613969,214.309642 320,214.309642 C297.315402,214.309642 276.30192,221.474178 259.09316,233.666772 L232.463005,207.001102 C256.641391,188.196499 287.014913,177 320,177 Z" id="eye" fill="#FFFFFF"></path>
            </g>
        </g>
    </g>
</svg>